<?xml version="1.0" encoding="utf-8"?>
<svg version="1.1" xmlns:xlink="http://www.w3.org/1999/xlink" width="22px" height="22px" xmlns="http://www.w3.org/2000/svg">
  <g transform="matrix(1 0 0 1 -778 -1475 )">
    <path d="M 789 1475  C 795.16 1475  800 1479.84  800 1486  C 800 1492.16  795.16 1497  789 1497  C 782.84 1497  778 1492.16  778 1486  C 778 1479.84  782.84 1475  789 1475  Z " fill-rule="nonzero" fill="#ff0000" stroke="none" />
    <path d="M 789 1475.5  C 794.88 1475.5  799.5 1480.12  799.5 1486  C 799.5 1491.88  794.88 1496.5  789 1496.5  C 783.12 1496.5  778.5 1491.88  778.5 1486  C 778.5 1480.12  783.12 1475.5  789 1475.5  Z " stroke-width="1" stroke="#ffffff" fill="none" />
  </g>
</svg>