<?xml version="1.0" encoding="utf-8"?>
<svg version="1.1" xmlns:xlink="http://www.w3.org/1999/xlink" width="32px" height="32px" xmlns="http://www.w3.org/2000/svg">
  <defs>
    <filter x="846px" y="2948px" width="32px" height="32px" filterUnits="userSpaceOnUse" id="filter7">
      <feOffset dx="1" dy="1" in="SourceAlpha" result="shadowOffsetInner" />
      <feGaussianBlur stdDeviation="2.5" in="shadowOffsetInner" result="shadowGaussian" />
      <feComposite in2="shadowGaussian" operator="atop" in="SourceAlpha" result="shadowComposite" />
      <feColorMatrix type="matrix" values="0 0 0 0 0  0 0 0 0 0  0 0 0 0 0  0 0 0 0.698039215686274 0  " in="shadowComposite" />
    </filter>
    <g id="widget8">
      <path d="M 861 2952  C 867.16 2952  872 2956.84  872 2963  C 872 2969.16  867.16 2974  861 2974  C 854.84 2974  850 2969.16  850 2963  C 850 2956.84  854.84 2952  861 2952  Z " fill-rule="nonzero" fill="#ff0000" stroke="none" />
      <path d="M 861 2952.5  C 866.88 2952.5  871.5 2957.12  871.5 2963  C 871.5 2968.88  866.88 2973.5  861 2973.5  C 855.12 2973.5  850.5 2968.88  850.5 2963  C 850.5 2957.12  855.12 2952.5  861 2952.5  Z " stroke-width="1" stroke="#ffffff" fill="none" />
    </g>
  </defs>
  <g transform="matrix(1 0 0 1 -846 -2948 )">
    <use xlink:href="#widget8" filter="url(#filter7)" />
    <use xlink:href="#widget8" />
  </g>
</svg>