<?xml version="1.0" encoding="utf-8"?>
<svg version="1.1" xmlns:xlink="http://www.w3.org/1999/xlink" width="13px" height="13px" xmlns="http://www.w3.org/2000/svg">
  <g transform="matrix(1 0 0 1 -141 -657 )">
    <path d="M 12.8332297585227 5.70654296875  C 12.9197887073864 5.79310191761362  12.9630681818182 5.90370501893941  12.9630681818182 6.03835227272728  L 12.9630681818182 6.96164772727272  C 12.9630681818182 7.09629498106059  12.9197887073864 7.20689808238638  12.8332297585227 7.29345703125  C 12.7466708096591 7.38001598011362  12.6360677083333 7.42329545454545  12.5014204545454 7.42329545454545  L 7.42329545454545 7.42329545454545  L 7.42329545454545 12.5014204545454  C 7.42329545454545 12.6360677083333  7.38001598011364 12.7466708096591  7.29345703125 12.8332297585227  C 7.20689808238636 12.9197887073864  7.09629498106062 12.9630681818182  6.96164772727272 12.9630681818182  L 6.03835227272728 12.9630681818182  C 5.90370501893941 12.9630681818182  5.79310191761364 12.9197887073864  5.70654296875 12.8332297585227  C 5.61998401988636 12.7466708096591  5.57670454545455 12.6360677083333  5.57670454545455 12.5014204545454  L 5.57670454545455 7.42329545454545  L 0.498579545454554 7.42329545454545  C 0.363932291666659 7.42329545454545  0.253329190340915 7.38001598011362  0.166770241477277 7.29345703125  C 0.0802112926136385 7.20689808238638  0.0369318181818077 7.09629498106059  0.0369318181818077 6.96164772727272  L 0.0369318181818077 6.03835227272728  C 0.0369318181818077 5.90370501893941  0.0802112926136385 5.79310191761362  0.166770241477277 5.70654296875  C 0.253329190340915 5.61998401988638  0.363932291666659 5.57670454545455  0.498579545454554 5.57670454545455  L 5.57670454545455 5.57670454545455  L 5.57670454545455 0.498579545454554  C 5.57670454545455 0.363932291666682  5.61998401988636 0.253329190340892  5.70654296875 0.166770241477277  C 5.79310191761364 0.0802112926136154  5.90370501893941 0.0369318181818308  6.03835227272728 0.0369318181818308  L 6.96164772727272 0.0369318181818308  C 7.09629498106062 0.0369318181818308  7.20689808238636 0.0802112926136154  7.29345703125 0.166770241477277  C 7.38001598011364 0.253329190340892  7.42329545454545 0.363932291666682  7.42329545454545 0.498579545454554  L 7.42329545454545 5.57670454545455  L 12.5014204545454 5.57670454545455  C 12.6360677083333 5.57670454545455  12.7466708096591 5.61998401988638  12.8332297585227 5.70654296875  Z " fill-rule="nonzero" fill="#fdfdfd" stroke="none" transform="matrix(1 0 0 1 141 657 )" />
  </g>
</svg>