<?xml version="1.0" encoding="utf-8"?>
<svg version="1.1" xmlns:xlink="http://www.w3.org/1999/xlink" width="40px" height="40px" xmlns="http://www.w3.org/2000/svg">
  <defs>
    <filter x="884px" y="244px" width="40px" height="40px" filterUnits="userSpaceOnUse" id="filter1">
      <feOffset dx="1" dy="1" in="SourceAlpha" result="shadowOffsetInner" />
      <feGaussianBlur stdDeviation="2.5" in="shadowOffsetInner" result="shadowGaussian" />
      <feComposite in2="shadowGaussian" operator="atop" in="SourceAlpha" result="shadowComposite" />
      <feColorMatrix type="matrix" values="0 0 0 0 0  0 0 0 0 0  0 0 0 0 0  0 0 0 0.698039215686274 0  " in="shadowComposite" />
    </filter>
    <g id="widget2">
      <path d="M 903 248  C 911.4 248  918 254.6  918 263  C 918 271.4  911.4 278  903 278  C 894.6 278  888 271.4  888 263  C 888 254.6  894.6 248  903 248  Z " fill-rule="nonzero" fill="#e35010" stroke="none" />
      <path d="M 903 248.5  C 911.12 248.5  917.5 254.88  917.5 263  C 917.5 271.12  911.12 277.5  903 277.5  C 894.88 277.5  888.5 271.12  888.5 263  C 888.5 254.88  894.88 248.5  903 248.5  Z " stroke-width="1" stroke="#ffffff" fill="none" />
    </g>
  </defs>
  <g transform="matrix(1 0 0 1 -884 -244 )">
    <use xlink:href="#widget2" filter="url(#filter1)" />
    <use xlink:href="#widget2" />
  </g>
</svg>