<?xml version="1.0" encoding="utf-8"?>
<svg version="1.1" xmlns:xlink="http://www.w3.org/1999/xlink" width="30px" height="30px" xmlns="http://www.w3.org/2000/svg">
  <g transform="matrix(1 0 0 1 -60 -617 )">
    <path d="M 75 617  C 83.4 617  90 623.6  90 632  C 90 640.4  83.4 647  75 647  C 66.6 647  60 640.4  60 632  C 60 623.6  66.6 617  75 617  Z " fill-rule="nonzero" fill="#e35010" stroke="none" />
    <path d="M 75 617.5  C 83.12 617.5  89.5 623.88  89.5 632  C 89.5 640.12  83.12 646.5  75 646.5  C 66.88 646.5  60.5 640.12  60.5 632  C 60.5 623.88  66.88 617.5  75 617.5  Z " stroke-width="1" stroke="#ffffff" fill="none" />
  </g>
</svg>