<?xml version="1.0" encoding="utf-8"?>
<svg version="1.1" xmlns:xlink="http://www.w3.org/1999/xlink" width="10px" height="7px" xmlns="http://www.w3.org/2000/svg">
  <g transform="matrix(1 0 0 1 -865 -451 )">
    <path d="M 9.81935483870968 0.966329966329967  C 9.93978494623656 1.07631874298541  10 1.20987654320988  10 1.36700336700337  C 10 1.52413019079686  9.93978494623656 1.65768799102132  9.81935483870968 1.76767676767677  L 5.14838709677419 6.03367003367003  L 4.27096774193548 6.83501683501683  C 4.1505376344086 6.94500561167228  4.00430107526882 7  3.83225806451613 7  C 3.66021505376344 7  3.51397849462366 6.94500561167228  3.39354838709677 6.83501683501683  L 2.51612903225806 6.03367003367003  L 0.180645161290323 3.9006734006734  C 0.0602150537634409 3.79068462401796  0 3.65712682379349  0 3.5  C 0 3.34287317620651  0.0602150537634409 3.20931537598204  0.180645161290323 3.0993265993266  L 1.05806451612903 2.2979797979798  C 1.17849462365591 2.18799102132435  1.3247311827957 2.13299663299663  1.49677419354839 2.13299663299663  C 1.66881720430108 2.13299663299663  1.81505376344086 2.18799102132435  1.93548387096774 2.2979797979798  L 3.83225806451613 4.03619528619529  L 8.06451612903226 0.164983164983165  C 8.18494623655914 0.0549943883277214  8.33118279569893 0  8.50322580645161 0  C 8.6752688172043 0  8.82150537634409 0.0549943883277214  8.94193548387097 0.164983164983165  L 9.81935483870968 0.966329966329967  Z " fill-rule="nonzero" fill="#ffffff" stroke="none" transform="matrix(1 0 0 1 865 451 )" />
  </g>
</svg>