<?xml version="1.0" encoding="utf-8"?>
<svg version="1.1" xmlns:xlink="http://www.w3.org/1999/xlink" width="19px" height="16px" xmlns="http://www.w3.org/2000/svg">
  <g transform="matrix(1 0 0 1 -271 -299 )">
    <path d="M 16.268897149938 9.141075604053  C 16.2767451466336 9.15770329955833  16.2806691449814 9.18264484281631  16.2806691449814 9.21590023382696  L 16.2806691449814 15.2018706157443  C 16.2806691449814 15.4180306573136  16.2061131763734 15.6050922317485  16.0570012391574 15.7630553390491  C 15.9078893019413 15.9210184463497  15.7313093762908 16  15.5272614622057 16  L 11.0068153655514 16  L 11.0068153655514 11.2112236944661  L 7.99318463444858 11.2112236944661  L 7.99318463444858 16  L 3.4727385377943 16  C 3.26869062370922 16  3.09211069805865 15.9210184463497  2.94299876084263 15.7630553390491  C 2.7938868236266 15.6050922317485  2.71933085501858 15.4180306573136  2.71933085501858 15.2018706157443  L 2.71933085501858 9.21590023382696  C 2.71933085501858 9.20758638607431  2.72129285419249 9.19511561444531  2.72521685254027 9.17848791893998  C 2.72914085088806 9.16186022343465  2.73110285006196 9.14938945180566  2.73110285006196 9.141075604053  L 9.5 3.22992985190958  L 16.268897149938 9.141075604053  Z M 18.9882280049566 8.06235385814498  C 18.9960760016522 8.17459080280591  18.9686080132177 8.27227851389971  18.905824039653 8.35541699142634  L 18.1759603469641 9.27825409197194  C 18.1131763733994 9.35307872174592  18.0307724080958 9.39880488438555  17.9287484510533 9.41543257989088  L 17.8934324659232 9.41543257989088  C 17.7914085088806 9.41543257989088  17.709004543577 9.38633411275655  17.6462205700124 9.32813717848792  L 9.5 2.13250194855807  L 1.3537794299876 9.32813717848792  C 1.25960346964064 9.39464796050922  1.16542750929368 9.42374642764355  1.07125154894671 9.41543257989088  C 0.969227591904168 9.39880488438555  0.886823626600575 9.35307872174592  0.824039653035936 9.27825409197194  L 0.0941759603469597 8.35541699142634  C 0.0313919867823199 8.27227851389971  0.00392399834779269 8.17459080280591  0.0117719950433673 8.06235385814498  C 0.0196199917389527 7.95011691348402  0.0627839735646398 7.8607430501429  0.14126394052045 7.7942322681216  L 8.60532837670384 0.324240062353852  C 8.85646427096241 0.10808002078461  9.15468814539447 0  9.5 0  C 9.84531185460554 0  10.1435357290376 0.10808002078461  10.3946716232962 0.324240062353852  L 18.8587360594796 7.7942322681216  C 18.9372160264354 7.8607430501429  18.980380008261 7.95011691348402  18.9882280049566 8.06235385814498  Z " fill-rule="nonzero" fill="#252525" stroke="none" transform="matrix(1 0 0 1 271 299 )" />
  </g>
</svg>