<?xml version="1.0" encoding="utf-8"?>
<svg version="1.1" xmlns:xlink="http://www.w3.org/1999/xlink" width="13px" height="15px" xmlns="http://www.w3.org/2000/svg">
  <defs>
    <mask fill="white" id="clip41">
      <path d="M 0.194630872483231 12.0201342281879  C 0.194630872483231 12.9597315436242  0.194630872483231 14.8389261744966  0.194630872483231 14.8389261744966  L 13 14.8389261744966  C 13 14.8389261744966  12.9463087248322 14.4362416107383  13 12.0201342281879  C 6.744966442953 8.79865771812086  10.5302013422819 3.69798657718121  10.5302013422819 3.69798657718121  L 10.5302013422819 0.744966442953057  L 2.20805369127515 0.744966442953057  L 2.20805369127515 3.69798657718121  C 2.20805369127515 3.69798657718121  6.90604026845637 8.39597315436242  0.194630872483231 12.0201342281879  Z " fill-rule="evenodd" />
    </mask>
  </defs>
  <g transform="matrix(1 0 0 1 -566 -300 )">
    <path d="M 0.194630872483231 12.0201342281879  C 0.194630872483231 12.9597315436242  0.194630872483231 14.8389261744966  0.194630872483231 14.8389261744966  L 13 14.8389261744966  C 13 14.8389261744966  12.9463087248322 14.4362416107383  13 12.0201342281879  C 6.744966442953 8.79865771812086  10.5302013422819 3.69798657718121  10.5302013422819 3.69798657718121  L 10.5302013422819 0.744966442953057  L 2.20805369127515 0.744966442953057  L 2.20805369127515 3.69798657718121  C 2.20805369127515 3.69798657718121  6.90604026845637 8.39597315436242  0.194630872483231 12.0201342281879  Z " fill-rule="nonzero" fill="#ffffff" stroke="none" fill-opacity="0" transform="matrix(1 0 0 1 566 300 )" />
    <path d="M 0.194630872483231 12.0201342281879  C 0.194630872483231 12.9597315436242  0.194630872483231 14.8389261744966  0.194630872483231 14.8389261744966  L 13 14.8389261744966  C 13 14.8389261744966  12.9463087248322 14.4362416107383  13 12.0201342281879  C 6.744966442953 8.79865771812086  10.5302013422819 3.69798657718121  10.5302013422819 3.69798657718121  L 10.5302013422819 0.744966442953057  L 2.20805369127515 0.744966442953057  L 2.20805369127515 3.69798657718121  C 2.20805369127515 3.69798657718121  6.90604026845637 8.39597315436242  0.194630872483231 12.0201342281879  Z " stroke-width="2" stroke="#ffffff" fill="none" stroke-opacity="0.988235294117647" transform="matrix(1 0 0 1 566 300 )" mask="url(#clip41)" />
  </g>
</svg>