<?xml version="1.0" encoding="utf-8"?>
<svg version="1.1" xmlns:xlink="http://www.w3.org/1999/xlink" width="24px" height="41px" xmlns="http://www.w3.org/2000/svg">
  <g transform="matrix(1 0 0 1 -133 -371 )">
    <path d="M 22.6875 12.4863636363636  C 23.5625 13.3560606060606  24 14.4121212121212  24 15.6545454545455  L 24 25.3454545454545  C 24 25.9666666666667  23.78125 26.494696969697  23.34375 26.9295454545455  C 22.90625 27.3643939393939  22.375 27.5818181818182  21.75 27.5818181818182  C 21.125 27.5818181818182  20.59375 27.3643939393939  20.15625 26.9295454545455  C 19.71875 26.494696969697  19.5 25.9666666666667  19.5 25.3454545454545  L 19.5 17.1454545454545  L 18 17.1454545454545  L 18 38.3909090909091  C 18 39.105303030303  17.7421875 39.71875  17.2265625 40.23125  C 16.7109375 40.74375  16.09375 41  15.375 41  C 14.65625 41  14.0390625 40.74375  13.5234375 40.23125  C 13.0078125 39.71875  12.75 39.105303030303  12.75 38.3909090909091  L 12.75 27.5818181818182  L 11.25 27.5818181818182  L 11.25 38.3909090909091  C 11.25 39.105303030303  10.9921875 39.71875  10.4765625 40.23125  C 9.9609375 40.74375  9.34375 41  8.625 41  C 7.90625 41  7.2890625 40.74375  6.7734375 40.23125  C 6.2578125 39.71875  6 39.105303030303  6 38.3909090909091  L 6 17.1454545454545  L 4.5 17.1454545454545  L 4.5 25.3454545454545  C 4.5 25.9666666666667  4.28125 26.494696969697  3.84375 26.9295454545455  C 3.40625 27.3643939393939  2.875 27.5818181818182  2.25 27.5818181818182  C 1.625 27.5818181818182  1.09375 27.3643939393939  0.65625 26.9295454545455  C 0.21875 26.494696969697  0 25.9666666666667  0 25.3454545454545  L 0 15.6545454545455  C 0 14.4121212121212  0.4375 13.3560606060606  1.3125 12.4863636363636  C 2.1875 11.6166666666667  3.25 11.1818181818182  4.5 12  L 19.5 12  C 20.75 11.1818181818182  21.8125 11.6166666666667  22.6875 12.4863636363636  Z M 15.71484375 1.52585227272727  C 16.73828125 2.54308712121212  17.25 3.77386363636364  17.25 5.21818181818182  C 17.25 6.6625  16.73828125 7.89327651515151  15.71484375 8.91051136363636  C 14.69140625 9.92774621212121  13.453125 10.4363636363636  12 10.4363636363636  C 10.546875 10.4363636363636  9.30859375 9.92774621212121  8.28515625 8.91051136363636  C 7.26171875 7.89327651515151  6.75 6.6625  6.75 5.21818181818182  C 6.75 3.77386363636364  7.26171875 2.54308712121212  8.28515625 1.52585227272727  C 9.30859375 0.508617424242421  10.546875 0  12 0  C 13.453125 0  14.69140625 0.508617424242421  15.71484375 1.52585227272727  Z " fill-rule="nonzero" fill="#000000" stroke="none" transform="matrix(1 0 0 1 133 371 )" />
  </g>
</svg>