<?xml version="1.0" encoding="utf-8"?>
<svg version="1.1" xmlns:xlink="http://www.w3.org/1999/xlink" width="41px" height="36px" xmlns="http://www.w3.org/2000/svg">
  <g transform="matrix(1 0 0 1 -194 -278 )">
    <path d="M 3.84375 0  L 23.04248046875 0  C 23.8566080729167 0  24.6306966145833 0.187500000000001  25.36474609375 0.5625  C 26.0987955729167 0.937499999999999  26.7060546875 1.453125  27.1865234375 2.109375  L 38.6376953125 17.7991071428571  C 40.2125651041667 19.9285714285714  41 22.3325892857143  41 25.0111607142857  L 41 32.1428571428571  C 41 33.2142857142857  40.6263020833333 34.125  39.87890625 34.875  C 39.1315104166667 35.625  38.2239583333333 36  37.15625 36  L 29.46875 36  C 28.4010416666667 36  27.4934895833333 35.625  26.74609375 34.875  C 25.9986979166667 34.125  25.625 33.2142857142857  25.625 32.1428571428571  L 25.625 28.5870535714286  L 19.8994140625 25  L 8.96875 25  C 7.90104166666667 25.7142857142857  6.99348958333333 25.3392857142857  6.24609375 24.5892857142857  C 5.49869791666667 23.8392857142857  5.125 22.9285714285714  5.125 21.8571428571429  L 5.125 21.2142857142857  C 5.125 19.6205357142857  5.68888346354167 18.2578125  6.816650390625 17.1261160714286  C 7.94441731770833 15.9944196428571  9.30240885416667 15.4285714285714  10.890625 15.4285714285714  L 19.298828125 15.4285714285714  L 20.1396484375 13  L 6.40625 13  C 5.07161458333333 12.8571428571429  3.913818359375 12.4051339285714  2.932861328125 11.5011160714286  C 1.951904296875 10.5970982142857  1.40804036458333 9.48214285714286  1.30126953125 8.15625  C 0.433756510416667 7.09821428571428  0 5.87946428571428  0 4.5  L 0 3.85714285714286  C 0 2.78571428571428  0.373697916666667 1.875  1.12109375 1.125  C 1.86848958333333 0.375000000000003  2.77604166666667 0  3.84375 0  Z M 38.05712890625 33.046875  C 38.3107096354167 32.7924107142857  38.4375 32.4910714285714  38.4375 32.1428571428571  L 38.4375 25.0111607142857  C 38.4375 22.9084821428571  37.81689453125 21.0066964285714  36.57568359375 19.3058035714286  L 25.1044921875 3.61607142857143  C 24.583984375 2.91964285714286  23.8966471354167 2.57142857142857  23.04248046875 3  L 3.84375 3  C 3.49674479166667 2.57142857142857  3.19645182291667 2.69866071428571  2.94287109375 2.953125  C 2.68929036458333 3.20758928571428  2.5625 3.50892857142857  2.5625 3.85714285714286  C 2.5625 4.28571428571428  2.572509765625 4.6171875  2.592529296875 4.8515625  C 2.612548828125 5.0859375  2.67594401041667 5.35714285714285  2.78271484375 5.66517857142857  C 2.88948567708333 5.97321428571428  3.05631510416667 6.26116071428571  3.283203125 6.52901785714286  C 3.41666666666667 6.11383928571428  3.653564453125 5.77901785714285  3.993896484375 5.52455357142857  C 4.334228515625 5.27008928571428  4.71126302083333 5.14285714285714  5.125 5.14285714285714  L 21.78125 5.14285714285714  L 21.78125 6  L 5.125 6  C 4.77799479166667 5.78571428571428  4.47770182291667 5.91294642857143  4.22412109375 6.16741071428572  C 3.97054036458333 6.421875  3.84375 6.72321428571428  3.84375 7.07142857142857  C 3.84375 7.66071428571428  3.86376953125 8.04910714285714  3.90380859375 8.23660714285714  C 4.01057942708333 8.82589285714286  4.30419921875 9.31473214285714  4.78466796875 9.703125  C 5.26513671875 10.0915178571429  5.8056640625 10.2857142857143  6.40625 11  L 19.21875 11  L 21.04052734375 10.2857142857143  C 21.5743815104167 10.2857142857143  22.0281575520833 10.4732142857143  22.40185546875 10.8482142857143  C 22.7755533854167 11.2232142857143  22.96240234375 11.6785714285714  22.96240234375 12.2142857142857  C 22.96240234375 12.4151785714286  22.9290364583333 12.6160714285714  22.8623046875 12.8169642857143  L 21.5810546875 16.6741071428571  C 21.4475911458333 17.0625  21.2140299479167 17.3805803571429  20.88037109375 17.6283482142857  C 20.5467122395833 17.8761160714286  20.1730143229167 18  19.75927734375 18  L 10.890625 18  C 10.009765625 18  9.25569661458333 18.3147321428571  8.62841796875 18.9441964285714  C 8.00113932291667 19.5736607142857  7.6875 20.3303571428571  7.6875 21.2142857142857  L 7.6875 21.8571428571429  C 7.6875 22.2053571428571  7.81429036458333 22.5066964285714  8.06787109375 22.7611607142857  C 8.32145182291667 23.015625  8.62174479166667 23.1428571428571  8.96875 23  L 20.19970703125 23  C 20.4132486979167 23.1428571428571  20.6067708333333 23.1897321428571  20.7802734375 23.2834821428571  L 27.12646484375 26.4575892857143  C 27.44677734375 26.6316964285714  27.7036946614583 26.8727678571429  27.897216796875 27.1808035714286  C 28.0907389322917 27.4888392857143  28.1875 27.8236607142857  28.1875 28.1852678571429  L 28.1875 32.1428571428571  C 28.1875 32.4910714285714  28.3142903645833 32.7924107142857  28.56787109375 33.046875  C 28.8214518229167 33.3013392857143  29.1217447916667 33.4285714285714  29.46875 33.4285714285714  L 37.15625 33.4285714285714  C 37.5032552083333 33.4285714285714  37.8035481770833 33.3013392857143  38.05712890625 33.046875  Z " fill-rule="nonzero" fill="#000000" stroke="none" transform="matrix(1 0 0 1 194 278 )" />
  </g>
</svg>