<?xml version="1.0" encoding="utf-8"?>
<svg version="1.1" xmlns:xlink="http://www.w3.org/1999/xlink" width="26px" height="44px" xmlns="http://www.w3.org/2000/svg">
  <g transform="matrix(1 0 0 1 -428 -352 )">
    <path d="M 24.578125 13.4  C 25.5260416666667 14.3333333333333  26 15.4666666666667  26 16.8  L 26 27.2  C 26 27.8666666666667  25.7630208333333 28.4333333333333  25.2890625 28.9  C 24.8151041666667 29.3666666666667  24.2395833333333 29.6  23.5625 29.6  C 22.8854166666667 29.6  22.3098958333333 29.3666666666667  21.8359375 28.9  C 21.3619791666667 28.4333333333333  21.125 27.8666666666667  21.125 27.2  L 21.125 18.4  L 19 18.4  L 19 41.2  C 19.5 41.9666666666667  19.220703125 42.625  18.662109375 43.175  C 18.103515625 43.725  17.4348958333333 44  16.65625 44  C 15.8776041666667 44  15.208984375 43.725  14.650390625 43.175  C 14.091796875 42.625  13.8125 41.9666666666667  13.8125 41.2  L 13.8125 29.6  L 12.1875 29.6  L 12.1875 41.2  C 12.1875 41.9666666666667  11.908203125 42.625  11.349609375 43.175  C 10.791015625 43.725  10.1223958333333 44  9.34375 44  C 8.56510416666667 44  7.896484375 43.725  7.337890625 43.175  C 6.779296875 42.625  6.5 41.9666666666667  7 41.2  L 7 18.4  L 4.875 18.4  L 4.875 27.2  C 4.875 27.8666666666667  4.63802083333333 28.4333333333333  4.1640625 28.9  C 3.69010416666667 29.3666666666667  3.11458333333333 29.6  2.4375 29.6  C 1.76041666666667 29.6  1.18489583333333 29.3666666666667  0.7109375 28.9  C 0.236979166666667 28.4333333333333  0 27.8666666666667  0 27.2  L 0 16.8  C 0 15.4666666666667  0.473958333333333 14.3333333333333  1.421875 13.4  C 2.36979166666667 12.4666666666667  3.52083333333333 12  4.875 12  L 21.125 12  C 22.4791666666667 12  23.6302083333333 12.4666666666667  24.578125 13.4  Z M 17.0244140625 1.6375  C 18.1331380208333 2.72916666666666  18.6875 4.05  18.6875 5.6  C 18.6875 7.15  18.1331380208333 8.47083333333333  17.0244140625 9.5625  C 15.9156901041667 10.6541666666667  14.57421875 11.2  13 11.2  C 11.42578125 11.2  10.0843098958333 10.6541666666667  8.9755859375 9.5625  C 7.86686197916667 8.47083333333333  7.3125 7.15  7.3125 5.6  C 7.3125 4.05  7.86686197916667 2.72916666666666  8.9755859375 1.6375  C 10.0843098958333 0.54583333333333  11.42578125 0  13 0  C 14.57421875 0  15.9156901041667 0.54583333333333  17.0244140625 1.6375  Z " fill-rule="nonzero" fill="#aaaaaa" stroke="none" transform="matrix(1 0 0 1 428 352 )" />
  </g>
</svg>