<?xml version="1.0" encoding="utf-8"?>
<svg version="1.1" xmlns:xlink="http://www.w3.org/1999/xlink" width="36px" height="50px" xmlns="http://www.w3.org/2000/svg">
  <g transform="matrix(1 0 0 1 -569 -293 )">
    <path d="M 587 293.5  C 596.8 293.5  604.5 304.28  604.5 318  C 604.5 331.72  596.8 342.5  587 342.5  C 577.2 342.5  569.5 331.72  569.5 318  C 569.5 304.28  577.2 293.5  587 293.5  Z " fill-rule="nonzero" fill="#ffffff" stroke="none" fill-opacity="0" />
    <path d="M 587 293.5  C 596.8 293.5  604.5 304.28  604.5 318  C 604.5 331.72  596.8 342.5  587 342.5  C 577.2 342.5  569.5 331.72  569.5 318  C 569.5 304.28  577.2 293.5  587 293.5  Z " stroke-width="1" stroke-dasharray="9,4" stroke="#fde66e" fill="none" stroke-dashoffset="0.5" />
  </g>
</svg>