<?xml version="1.0" encoding="utf-8"?>
<svg version="1.1" xmlns:xlink="http://www.w3.org/1999/xlink" width="20px" height="16px" xmlns="http://www.w3.org/2000/svg">
  <g transform="matrix(1 0 0 1 -596 -282 )">
    <path d="M 18.4194711538462 1.49431818181818  C 19.4731570512821 2.4905303030303  20 3.68939393939394  20 5.09090909090909  L 20 8  C 20 8.1969696969697  19.9238782051282 8.36742424242424  19.7716346153846 8.51136363636364  C 19.619391025641 8.65530303030303  19.4391025641026 8.72727272727273  19.2307692307692 8.72727272727273  L 18.4615384615385 8.72727272727273  C 18.2532051282051 8.72727272727273  18.0729166666667 8.65530303030303  17.9206730769231 8.51136363636364  C 17.7684294871795 8.36742424242424  17.6923076923077 8.1969696969697  17.6923076923077 8  L 17.6923076923077 5.09090909090909  C 17.6923076923077 4.28787878787879  17.3918269230769 3.60227272727273  16.7908653846154 3.03409090909091  C 16.1899038461538 2.46590909090909  15.4647435897436 2.18181818181818  14.6153846153846 2.18181818181818  C 13.7660256410256 2.18181818181818  13.0408653846154 2.46590909090909  12.4399038461538 3.03409090909091  C 11.8389423076923 3.60227272727273  11.5384615384615 4.28787878787879  11.5384615384615 5.09090909090909  L 11.5384615384615 7.27272727272727  L 12.6923076923077 7.27272727272727  C 13.0128205128205 7.27272727272727  13.2852564102564 7.37878787878788  13.5096153846154 7.59090909090909  C 13.7339743589744 7.8030303030303  13.8461538461538 8.06060606060606  13.8461538461538 8.36363636363636  L 13.8461538461538 14.9090909090909  C 13.8461538461538 15.2121212121212  13.7339743589744 15.469696969697  13.5096153846154 15.6818181818182  C 13.2852564102564 15.8939393939394  13.0128205128205 16  12.6923076923077 16  L 1.15384615384615 16  C 0.833333333333333 16  0.560897435897436 15.8939393939394  0.336538461538462 15.6818181818182  C 0.112179487179487 15.469696969697  0 15.2121212121212  0 14.9090909090909  L 0 8.36363636363636  C 0 8.06060606060606  0.112179487179487 7.8030303030303  0.336538461538462 7.59090909090909  C 0.560897435897436 7.37878787878788  0.833333333333333 7.27272727272727  1.15384615384615 7.27272727272727  L 9.23076923076923 7.27272727272727  L 9.23076923076923 5.09090909090909  C 9.23076923076923 3.68939393939394  9.75761217948718 2.4905303030303  10.8112980769231 1.49431818181818  C 11.864983974359 0.498106060606061  13.1330128205128 0  14.6153846153846 0  C 16.0977564102564 0  17.3657852564103 0.498106060606061  18.4194711538462 1.49431818181818  Z " fill-rule="nonzero" fill="#000000" stroke="none" transform="matrix(1 0 0 1 596 282 )" />
  </g>
</svg>