<?xml version="1.0" encoding="utf-8"?>
<svg version="1.1" xmlns:xlink="http://www.w3.org/1999/xlink" width="15px" height="16px" xmlns="http://www.w3.org/2000/svg">
  <g transform="matrix(1 0 0 1 -450 -282 )">
    <path d="M 4.16666666666667 5.09090909090909  L 4.16666666666667 7.27272727272727  L 10.8333333333333 7.27272727272727  L 10.8333333333333 5.09090909090909  C 10.8333333333333 4.28787878787879  10.5078125 3.60227272727273  9.85677083333333 3.03409090909091  C 9.20572916666667 2.46590909090909  8.42013888888889 2.18181818181818  7.5 2.18181818181818  C 6.57986111111111 2.18181818181818  5.79427083333333 2.46590909090909  5.14322916666667 3.03409090909091  C 4.4921875 3.60227272727273  4.16666666666667 4.28787878787879  4.16666666666667 5.09090909090909  Z M 14.6354166666667 7.59090909090909  C 14.8784722222222 7.8030303030303  15 8.06060606060606  15 8.36363636363636  L 15 14.9090909090909  C 15 15.2121212121212  14.8784722222222 15.469696969697  14.6354166666667 15.6818181818182  C 14.3923611111111 15.8939393939394  14.0972222222222 16  13.75 16  L 1.25 16  C 0.902777777777778 16  0.607638888888889 15.8939393939394  0.364583333333333 15.6818181818182  C 0.121527777777778 15.469696969697  0 15.2121212121212  0 14.9090909090909  L 0 8.36363636363636  C 0 8.06060606060606  0.121527777777778 7.8030303030303  0.364583333333333 7.59090909090909  C 0.607638888888889 7.37878787878788  0.902777777777778 7.27272727272727  1.25 7.27272727272727  L 1.66666666666667 7.27272727272727  L 1.66666666666667 5.09090909090909  C 1.66666666666667 3.6969696969697  2.23958333333333 2.5  3.38541666666667 1.5  C 4.53125 0.5  5.90277777777778 0  7.5 0  C 9.09722222222222 0  10.46875 0.5  11.6145833333333 1.5  C 12.7604166666667 2.5  13.3333333333333 3.6969696969697  13.3333333333333 5.09090909090909  L 13.3333333333333 7.27272727272727  L 13.75 7.27272727272727  C 14.0972222222222 7.27272727272727  14.3923611111111 7.37878787878788  14.6354166666667 7.59090909090909  Z " fill-rule="nonzero" fill="#000000" stroke="none" transform="matrix(1 0 0 1 450 282 )" />
  </g>
</svg>