<?xml version="1.0" encoding="utf-8"?>
<svg version="1.1" xmlns:xlink="http://www.w3.org/1999/xlink" width="15px" height="15px" xmlns="http://www.w3.org/2000/svg">
  <g transform="matrix(1 0 0 1 -731 -288 )">
    <path d="M 11.181640625 9.1259765625  C 11.2141927083333 9.1552734375  11.23046875 9.19270833333333  11.23046875 9.23828125  L 11.23046875 10.302734375  C 11.23046875 10.6282552083333  11.1116536458333 10.91796875  10.8740234375 11.171875  C 10.6363932291667 11.42578125  10.3304036458333 11.6227213541667  9.9560546875 11.7626953125  C 9.58170572916667 11.9026692708333  9.19759114583333 12.0084635416667  8.8037109375 12.080078125  C 8.40983072916667 12.1516927083333  8.02734375 12.1875  7.65625 12.1875  C 6.32161458333333 12.1875  5.20670572916667 11.7350260416667  4.3115234375 10.830078125  C 3.41634114583333 9.92513020833333  2.96875 8.798828125  2.96875 7.451171875  C 2.96875 6.12955729166667  3.41145833333333 5.02604166666667  4.296875 4.140625  C 5.18229166666667 3.25520833333333  6.28580729166667 2.8125  7.607421875 2.8125  C 7.82877604166667 2.8125  8.07454427083333 2.8271484375  8.3447265625 2.8564453125  C 8.61490885416667 2.8857421875  8.91764322916667 2.9443359375  9.2529296875 3.0322265625  C 9.58821614583334 3.1201171875  9.88932291666667 3.23079427083333  10.15625 3.3642578125  C 10.4231770833333 3.49772135416667  10.6477864583333 3.681640625  10.830078125 3.916015625  C 11.0123697916667 4.150390625  11.103515625 4.4140625  11.103515625 4.70703125  L 11.103515625 5.771484375  C 11.103515625 5.87565104166666  11.0514322916667 5.927734375  10.947265625 5.927734375  L 9.794921875 5.927734375  C 9.69075520833334 5.927734375  9.638671875 5.87565104166666  9.638671875 5.771484375  L 9.638671875 5.087890625  C 9.638671875 4.80794270833333  9.42545572916667 4.58821614583333  8.9990234375 4.4287109375  C 8.57259114583333 4.26920572916667  8.125 4.189453125  7.65625 4.189453125  C 6.74479166666667 4.189453125  6.0009765625 4.4873046875  5.4248046875 5.0830078125  C 4.8486328125 5.6787109375  4.560546875 6.45182291666667  4.560546875 7.40234375  C 4.560546875 8.38541666666666  4.8583984375 9.19759114583333  5.4541015625 9.8388671875  C 6.0498046875 10.4801432291667  6.80989583333333 10.80078125  7.734375 10.80078125  C 8.17708333333333 10.80078125  8.62630208333333 10.72265625  9.08203125 10.56640625  C 9.53776041666667 10.41015625  9.765625 10.1953125  9.765625 9.921875  L 9.765625 9.23828125  C 9.765625 9.19270833333333  9.7802734375 9.1552734375  9.8095703125 9.1259765625  C 9.8388671875 9.0966796875  9.873046875 9.08203125  9.912109375 9.08203125  L 11.07421875 9.08203125  C 11.11328125 9.08203125  11.1490885416667 9.0966796875  11.181640625 9.1259765625  Z M 9.9267578125 1.748046875  C 9.1552734375 1.416015625  8.34635416666667 1.25  7.5 1.25  C 6.65364583333333 1.25  5.8447265625 1.416015625  5.0732421875 1.748046875  C 4.3017578125 2.080078125  3.6376953125 2.5244140625  3.0810546875 3.0810546875  C 2.5244140625 3.6376953125  2.080078125 4.3017578125  1.748046875 5.0732421875  C 1.416015625 5.8447265625  1.25 6.65364583333333  1.25 7.5  C 1.25 8.34635416666667  1.416015625 9.1552734375  1.748046875 9.9267578125  C 2.080078125 10.6982421875  2.5244140625 11.3623046875  3.0810546875 11.9189453125  C 3.6376953125 12.4755859375  4.3017578125 12.919921875  5.0732421875 13.251953125  C 5.8447265625 13.583984375  6.65364583333333 13.75  7.5 13.75  C 8.34635416666667 13.75  9.1552734375 13.583984375  9.9267578125 13.251953125  C 10.6982421875 12.919921875  11.3623046875 12.4755859375  11.9189453125 11.9189453125  C 12.4755859375 11.3623046875  12.919921875 10.6982421875  13.251953125 9.9267578125  C 13.583984375 9.1552734375  13.75 8.34635416666667  13.75 7.5  C 13.75 6.65364583333333  13.583984375 5.8447265625  13.251953125 5.0732421875  C 12.919921875 4.3017578125  12.4755859375 3.6376953125  11.9189453125 3.0810546875  C 11.3623046875 2.5244140625  10.6982421875 2.080078125  9.9267578125 1.748046875  Z M 13.994140625 3.7353515625  C 14.6647135416667 4.88444010416667  15 6.13932291666666  15 7.5  C 15 8.86067708333333  14.6647135416667 10.1155598958333  13.994140625 11.2646484375  C 13.3235677083333 12.4137369791667  12.4137369791667 13.3235677083333  11.2646484375 13.994140625  C 10.1155598958333 14.6647135416667  8.86067708333333 15  7.5 15  C 6.13932291666667 15  4.88444010416667 14.6647135416667  3.7353515625 13.994140625  C 2.58626302083333 13.3235677083333  1.67643229166667 12.4137369791667  1.005859375 11.2646484375  C 0.335286458333333 10.1155598958333  0 8.86067708333333  0 7.5  C 0 6.13932291666666  0.335286458333333 4.88444010416667  1.005859375 3.7353515625  C 1.67643229166667 2.58626302083333  2.58626302083333 1.67643229166667  3.7353515625 1.005859375  C 4.88444010416667 0.335286458333332  6.13932291666667 0  7.5 0  C 8.86067708333333 0  10.1155598958333 0.335286458333332  11.2646484375 1.005859375  C 12.4137369791667 1.67643229166667  13.3235677083333 2.58626302083333  13.994140625 3.7353515625  Z " fill-rule="nonzero" fill="#000000" stroke="none" transform="matrix(1 0 0 1 731 288 )" />
  </g>
</svg>