<?xml version="1.0" encoding="utf-8"?>
<svg version="1.1" xmlns:xlink="http://www.w3.org/1999/xlink" width="17px" height="20px" xmlns="http://www.w3.org/2000/svg">
  <g transform="matrix(1 0 0 1 -745 -271 )">
    <path d="M 9.15384615384615 9.00240384615385  L 9.15384615384615 18.0408653846154  L 15.6923076923077 13.8461538461538  L 15.6923076923077 6.20192307692308  L 9.15384615384615 9.00240384615385  Z M 1.36899038461538 4.59134615384615  L 8.5 7.64423076923077  L 15.6310096153846 4.59134615384615  L 8.5 1.53846153846154  L 1.36899038461538 4.59134615384615  Z M 16.7650240384615 3.73798076923077  C 16.9216746794872 4.00240384615385  17 4.29487179487179  17 4.61538461538462  L 17 13.8461538461538  C 17 14.1266025641026  16.9387019230769 14.3870192307692  16.8161057692308 14.6274038461538  C 16.6935096153846 14.8677884615385  16.5266426282051 15.0560897435897  16.3155048076923 15.1923076923077  L 9.12319711538462 19.8076923076923  C 8.93249198717949 19.9358974358974  8.72475961538462 20  8.5 20  C 8.27524038461539 20  8.06750801282051 19.9358974358974  7.87680288461538 19.8076923076923  L 0.684495192307692 15.1923076923077  C 0.473357371794872 15.0560897435897  0.306490384615385 14.8677884615385  0.183894230769231 14.6274038461538  C 0.0612980769230769 14.3870192307692  0 14.1266025641026  0 13.8461538461538  L 0 4.61538461538462  C 0 4.29487179487179  0.0783253205128205 4.00240384615385  0.234975961538462 3.73798076923077  C 0.391626602564103 3.47355769230769  0.599358974358974 3.28525641025641  0.858173076923077 3.17307692307692  L 8.05048076923077 0.0961538461538458  C 8.20032051282051 0.0320512820512797  8.35016025641026 0  8.5 0  C 8.64983974358974 0  8.79967948717949 0.0320512820512797  8.94951923076923 0.0961538461538458  L 16.1418269230769 3.17307692307692  C 16.400641025641 3.28525641025641  16.6083733974359 3.47355769230769  16.7650240384615 3.73798076923077  Z " fill-rule="nonzero" fill="#000000" stroke="none" transform="matrix(1 0 0 1 745 271 )" />
  </g>
</svg>