<?xml version="1.0" encoding="utf-8"?>
<svg version="1.1" xmlns:xlink="http://www.w3.org/1999/xlink" width="14px" height="26px" xmlns="http://www.w3.org/2000/svg">
  <g transform="matrix(1 0 0 1 -759 -299 )">
    <path d="M 13.28285077951 6.609375  C 13.4803266518189 6.609375  13.6570155902004 6.6875  13.8129175946548 6.84375  C 14 7.05208333333333  14.0363771343727 7.28125  13.9220489977728 7.53125  L 5.50334075723831 25.609375  C 5.36822568671121 25.8697916666667  5.14996288047513 26  4.84855233853007 26  C 4.80697847067558 26  4.73422420193022 25.9895833333333  4.63028953229399 25.96875  C 4.4536005939124 25.9166666666667  4.32108389012621 25.8177083333333  4.23273942093541 25.671875  C 4.14439495174462 25.5260416666667  4.12100965107647 25.3697916666667  4.16258351893096 25.203125  L 7.23385300668151 12.578125  L 0.904231625835189 14.15625  C 0.862657757980698 14.1666666666667  0.800296956198961 14.171875  0.717149220489978 14.171875  C 0.530066815144766 14.171875  0.368968077208612 14.1145833333333  0.233853006681514 14  C 0.0467706013363029 13.84375  -0.0207869339272457 13.640625  0.0311804008908686 13.390625  L 3.16481069042316 0.500000000000001  C 3.20638455827765 0.354166666666665  3.28953229398664 0.234375000000001  3.41425389755011 0.140625  C 3.53897550111359 0.0468749999999991  3.68448403860431 0  3.85077951002227 0  L 8.96436525612472 0  C 9.16184112843356 0  9.32813659985152 0.0651041666666632  9.46325167037862 0.195312500000001  C 9.59836674090572 0.325520833333333  9.66592427616926 0.479166666666665  9.66592427616926 0.656249999999999  C 9.66592427616926 0.739583333333332  9.63994060876021 0.833333333333333  9.58797327394209 0.9375  L 6.92204899777283 8.171875  L 13.0957683741648 6.640625  C 13.1789161098738 6.61979166666666  13.2412769116555 6.609375  13.28285077951 6.609375  Z " fill-rule="nonzero" fill="#000000" stroke="none" transform="matrix(1 0 0 1 759 299 )" />
  </g>
</svg>