<?xml version="1.0" encoding="utf-8"?>
<svg version="1.1" xmlns:xlink="http://www.w3.org/1999/xlink" width="21px" height="19px" xmlns="http://www.w3.org/2000/svg">
  <g transform="matrix(1 0 0 1 -720 -271 )">
    <path d="M 12.44140625 16.9996279761905  C 12.60546875 16.8723958333333  12.6875 16.6909722222222  12.6875 16.4553571428571  L 12.6875 15.6636904761905  L 12.6875 9.04761904761905  L 12.6875 6.33333333333333  L 8.3125 6.33333333333333  L 8.3125 9.04761904761905  L 8.3125 15.6636904761905  L 8.3125 16.4553571428571  C 8.3125 16.6909722222222  8.39453125 16.8723958333333  8.55859375 16.9996279761905  C 8.72265625 17.1268601190476  8.93229166666667 17.1904761904762  9.1875 17.1904761904762  L 11.8125 17.1904761904762  C 12.0677083333333 17.1904761904762  12.27734375 17.1268601190476  12.44140625 16.9996279761905  Z M 5.5234375 4.12797619047619  C 5.77864583333333 4.39186507936508  6.08854166666667 4.52380952380952  6.453125 4.52380952380952  L 9.119140625 4.52380952380952  L 7.396484375 2.24776785714286  C 7.15950520833333 1.95560515873016  6.84505208333333 1.80952380952381  6.453125 1.80952380952381  C 6.08854166666667 1.80952380952381  5.77864583333333 1.94146825396825  5.5234375 2.20535714285714  C 5.26822916666667 2.46924603174603  5.140625 2.78968253968254  5.140625 3.16666666666667  C 5.140625 3.54365079365079  5.26822916666667 3.8640873015873  5.5234375 4.12797619047619  Z M 15.4765625 4.12797619047619  C 15.7317708333333 3.8640873015873  15.859375 3.54365079365079  15.859375 3.16666666666667  C 15.859375 2.78968253968254  15.7317708333333 2.46924603174603  15.4765625 2.20535714285714  C 15.2213541666667 1.94146825396825  14.9114583333333 1.80952380952381  14.546875 1.80952380952381  C 14.1549479166667 1.80952380952381  13.8404947916667 1.95560515873016  13.603515625 2.24776785714286  L 11.89453125 4.52380952380952  L 14.546875 4.52380952380952  C 14.9114583333333 4.52380952380952  15.2213541666667 4.39186507936508  15.4765625 4.12797619047619  Z M 20.876953125 6.46056547619048  C 20.958984375 6.54538690476191  21 6.65376984126984  21 6.78571428571428  L 21 11.3095238095238  C 21 11.4414682539683  20.958984375 11.5498511904762  20.876953125 11.6346726190476  C 20.794921875 11.719494047619  20.6901041666667 11.7619047619048  20.5625 11.7619047619048  L 19.25 11.7619047619048  L 19.25 17.6428571428571  C 19.25 18.0198412698413  19.1223958333333 18.3402777777778  18.8671875 18.6041666666667  C 18.6119791666667 18.8680555555556  18.3020833333333 19  17.9375 19  L 3.0625 19  C 2.69791666666667 19  2.38802083333333 18.8680555555556  2.1328125 18.6041666666667  C 1.87760416666667 18.3402777777778  1.75 18.0198412698413  1.75 17.6428571428571  L 1.75 11.7619047619048  L 0.4375 11.7619047619048  C 0.309895833333333 11.7619047619048  0.205078125 11.719494047619  0.123046875 11.6346726190476  C 0.041015625 11.5498511904762  0 11.4414682539683  0 11.3095238095238  L 0 6.78571428571428  C 0 6.65376984126984  0.041015625 6.54538690476191  0.123046875 6.46056547619048  C 0.205078125 6.37574404761905  0.309895833333333 6.33333333333333  0.4375 6.33333333333333  L 6.453125 6.33333333333333  C 5.60546875 6.33333333333333  4.88313802083333 6.02467757936508  4.2861328125 5.40736607142857  C 3.68912760416667 4.79005456349206  3.390625 4.04315476190476  3.390625 3.16666666666667  C 3.390625 2.29017857142857  3.68912760416667 1.54327876984127  4.2861328125 0.925967261904762  C 4.88313802083333 0.308655753968253  5.60546875 0  6.453125 0  C 7.42838541666667 0  8.19401041666667 0.36284722222222  8.75 1.08854166666667  L 10.5 3.42113095238095  L 12.25 1.08854166666667  C 12.8059895833333 0.36284722222222  13.5716145833333 0  14.546875 0  C 15.39453125 0  16.1168619791667 0.308655753968253  16.7138671875 0.925967261904762  C 17.3108723958333 1.54327876984127  17.609375 2.29017857142857  17.609375 3.16666666666667  C 17.609375 4.04315476190476  17.3108723958333 4.79005456349206  16.7138671875 5.40736607142857  C 16.1168619791667 6.02467757936508  15.39453125 6.33333333333333  14.546875 6.33333333333333  L 20.5625 6.33333333333333  C 20.6901041666667 6.33333333333333  20.794921875 6.37574404761905  20.876953125 6.46056547619048  Z " fill-rule="nonzero" fill="#000000" stroke="none" transform="matrix(1 0 0 1 720 271 )" />
  </g>
</svg>