<?xml version="1.0" encoding="utf-8"?>
<svg version="1.1" xmlns:xlink="http://www.w3.org/1999/xlink" width="16px" height="26px" xmlns="http://www.w3.org/2000/svg">
  <g transform="matrix(1 0 0 1 -742 -326 )">
    <path d="M 15.3142857142857 19.2592592592593  C 15.6051948051948 19.2592592592593  15.8060606060606 19.3545524691358  15.9168831168831 19.5451388888889  C 16.0277056277056 19.735725308642  15.9930735930736 19.9112654320988  15.812987012987 20.0717592592593  L 8.54025974025974 25.849537037037  C 8.4017316017316 25.9498456790123  8.24242424242424 26  8.06233766233766 26  C 7.86839826839827 26  7.7021645021645 25.9498456790123  7.56363636363636 25.849537037037  L 0.187012987012987 20.0717592592593  C 0.00692640692640691 19.9112654320988  -0.0277056277056277 19.735725308642  0.0831168831168831 19.5451388888889  C 0.207792207792208 19.3545524691358  0.408658008658009 19.2592592592593  0.685714285714286 19.2592592592593  L 5.34025974025974 19.2592592592593  L 5.34025974025974 0.481481481481481  C 5.34025974025974 0.341049382716047  5.4025974025974 0.225694444444445  5.52727272727273 0.135416666666668  C 5.65194805194805 0.0451388888888902  5.81125541125541 0  6.00519480519481 0  L 9.9948051948052 0  C 10.1887445887446 0  10.3480519480519 0.0451388888888902  10.4727272727273 0.135416666666668  C 10.5974025974026 0.225694444444445  10.6597402597403 0.341049382716047  10.6597402597403 0.481481481481481  L 10.6597402597403 19.2592592592593  L 15.3142857142857 19.2592592592593  Z " fill-rule="nonzero" fill="#000000" stroke="none" transform="matrix(1 0 0 1 742 326 )" />
  </g>
</svg>