<?xml version="1.0" encoding="utf-8"?>
<svg version="1.1" xmlns:xlink="http://www.w3.org/1999/xlink" width="21px" height="14px" xmlns="http://www.w3.org/2000/svg">
  <g transform="matrix(1 0 0 1 -745 -294 )">
    <path d="M 8.4 8.75  L 8.4 9.8  L 12.6 9.8  L 12.6 8.75  L 11.2 8.75  L 11.2 3.85  L 9.953125 3.85  L 8.334375 5.3484375  L 9.1765625 6.2234375  C 9.4828125 5.95364583333333  9.68333333333333 5.74583333333333  9.778125 5.6  L 9.8 5.6  L 9.8 8.75  L 8.4 8.75  Z M 13.7703125 5.446875  C 13.9234375 5.971875  14 6.48958333333333  14 7  C 14 7.51041666666667  13.9234375 8.028125  13.7703125 8.553125  C 13.6171875 9.078125  13.4002604166667 9.56666666666666  13.11953125 10.01875  C 12.8388020833333 10.4708333333333  12.46875 10.8390625  12.009375 11.1234375  C 11.55 11.4078125  11.046875 11.55  10.5 11.55  C 9.953125 11.55  9.45 11.4078125  8.990625 11.1234375  C 8.53125 10.8390625  8.16119791666667 10.4708333333333  7.88046875 10.01875  C 7.59973958333333 9.56666666666666  7.3828125 9.078125  7.2296875 8.553125  C 7.0765625 8.028125  7 7.51041666666667  7 7  C 7 6.48958333333333  7.0765625 5.971875  7.2296875 5.446875  C 7.3828125 4.921875  7.59973958333333 4.43333333333333  7.88046875 3.98125  C 8.16119791666667 3.52916666666667  8.53125 3.1609375  8.990625 2.8765625  C 9.45 2.5921875  9.953125 2.45  10.5 2.45  C 11.046875 2.45  11.55 2.5921875  12.009375 2.8765625  C 12.46875 3.1609375  12.8388020833333 3.52916666666667  13.11953125 3.98125  C 13.4002604166667 4.43333333333333  13.6171875 4.921875  13.7703125 5.446875  Z M 17.6203125 10.6203125  C 18.1671875 10.0734375  18.8270833333333 9.8  19.6 9.8  L 19.6 4.2  C 18.8270833333333 4.2  18.1671875 3.9265625  17.6203125 3.3796875  C 17.0734375 2.8328125  16.8 2.17291666666666  16.8 1.4  L 4.2 1.4  C 4.2 2.17291666666666  3.9265625 2.8328125  3.3796875 3.3796875  C 2.8328125 3.9265625  2.17291666666667 4.2  1.4 4.2  L 1.4 9.8  C 2.17291666666667 9.8  2.8328125 10.0734375  3.3796875 10.6203125  C 3.9265625 11.1671875  4.2 11.8270833333333  4.2 12.6  L 16.8 12.6  C 16.8 11.8270833333333  17.0734375 11.1671875  17.6203125 10.6203125  Z M 20.7921875 0.207812500000001  C 20.9307291666667 0.346354166666666  21 0.510416666666666  21 0.700000000000001  L 21 13.3  C 21 13.4895833333333  20.9307291666667 13.6536458333333  20.7921875 13.7921875  C 20.6536458333333 13.9307291666667  20.4895833333333 14  20.3 14  L 0.7 14  C 0.510416666666667 14  0.346354166666667 13.9307291666667  0.2078125 13.7921875  C 0.0692708333333333 13.6536458333333  0 13.4895833333333  0 13.3  L 0 0.700000000000001  C 0 0.510416666666666  0.0692708333333333 0.346354166666666  0.2078125 0.207812500000001  C 0.346354166666667 0.0692708333333325  0.510416666666667 0  0.7 0  L 20.3 0  C 20.4895833333333 0  20.6536458333333 0.0692708333333325  20.7921875 0.207812500000001  Z " fill-rule="nonzero" fill="#000000" stroke="none" transform="matrix(1 0 0 1 745 294 )" />
  </g>
</svg>