<?xml version="1.0" encoding="utf-8"?>
<svg version="1.1" xmlns:xlink="http://www.w3.org/1999/xlink" width="21px" height="25px" xmlns="http://www.w3.org/2000/svg">
  <g transform="matrix(1 0 0 1 -907 -291 )">
    <path d="M 13.99453125 19.4010416666667  C 16.56484375 17.4045138888889  17.85 15.4513888888889  17.85 13.5416666666667  L 17.85 3.125  L 10.5 3.125  L 10.5 21.630859375  C 11.8015625 20.947265625  12.96640625 20.2039930555556  13.99453125 19.4010416666667  Z M 20.68828125 0.309244791666666  C 20.89609375 0.515407986111108  21 0.759548611111108  21 1.04166666666667  L 21 13.5416666666667  C 21 14.4748263888889  20.816796875 15.3998480902778  20.450390625 16.3167317708333  C 20.083984375 17.2336154513889  19.630078125 18.0474175347222  19.088671875 18.7581380208333  C 18.547265625 19.4688585069444  17.901953125 20.1605902777778  17.152734375 20.8333333333333  C 16.403515625 21.5060763888889  15.71171875 22.0648871527778  15.07734375 22.509765625  C 14.44296875 22.9546440972222  13.78125 23.3751085069444  13.0921875 23.7711588541667  C 12.403125 24.1672092013889  11.913671875 24.4357638888889  11.623828125 24.5768229166667  C 11.333984375 24.7178819444444  11.1015625 24.8263888888889  10.9265625 24.90234375  C 10.7953125 24.9674479166667  10.653125 25  10.5 25  C 10.346875 25  10.2046875 24.9674479166667  10.0734375 24.90234375  C 9.8984375 24.8263888888889  9.666015625 24.7178819444444  9.376171875 24.5768229166667  C 9.086328125 24.4357638888889  8.596875 24.1672092013889  7.9078125 23.7711588541667  C 7.21875 23.3751085069444  6.55703125 22.9546440972222  5.92265625 22.509765625  C 5.28828125 22.0648871527778  4.596484375 21.5060763888889  3.847265625 20.8333333333333  C 3.098046875 20.1605902777778  2.452734375 19.4688585069444  1.911328125 18.7581380208333  C 1.369921875 18.0474175347222  0.916015625 17.2336154513889  0.549609375 16.3167317708333  C 0.183203125 15.3998480902778  0 14.4748263888889  0 13.5416666666667  L 0 1.04166666666667  C 0 0.759548611111108  0.10390625 0.515407986111108  0.31171875 0.309244791666666  C 0.51953125 0.103081597222221  0.765625 0  1.05 0  L 19.95 0  C 20.234375 0  20.48046875 0.103081597222221  20.68828125 0.309244791666666  Z " fill-rule="nonzero" fill="#000000" stroke="none" transform="matrix(1 0 0 1 907 291 )" />
  </g>
</svg>