<?xml version="1.0" encoding="utf-8"?>
<svg version="1.1" xmlns:xlink="http://www.w3.org/1999/xlink" width="34px" height="3px" xmlns="http://www.w3.org/2000/svg">
  <g transform="matrix(1 0 0 1 -872 -292 )">
    <path d="M 33.3238636363636 0.21875  C 33.7746212121212 0.364583333333332  34 0.541666666666666  34 0.75  L 34 2.25  C 34 2.45833333333333  33.7746212121212 2.63541666666667  33.3238636363636 2.78125  C 32.8731060606061 2.92708333333333  32.3257575757576 3  31.6818181818182 3  L 2.31818181818182 3  C 1.67424242424242 3  1.12689393939394 2.92708333333333  0.676136363636364 2.78125  C 0.225378787878788 2.63541666666667  0 2.45833333333333  0 2.25  L 0 0.75  C 0 0.541666666666666  0.225378787878788 0.364583333333332  0.676136363636364 0.21875  C 1.12689393939394 0.0729166666666661  1.67424242424242 0  2.31818181818182 0  L 31.6818181818182 0  C 32.3257575757576 0  32.8731060606061 0.0729166666666661  33.3238636363636 0.21875  Z " fill-rule="nonzero" fill="#000000" stroke="none" transform="matrix(1 0 0 1 872 292 )" />
  </g>
</svg>