<?xml version="1.0" encoding="utf-8"?>
<svg version="1.1" xmlns:xlink="http://www.w3.org/1999/xlink" width="11px" height="13px" xmlns="http://www.w3.org/2000/svg">
  <g transform="matrix(1 0 0 1 -881 -377 )">
    <path d="M 8.27864583333333 0.493303571428572  L 10.5130208333333 2.75669642857143  C 10.6467013888889 2.89211309523809  10.7612847222222 3.07589285714286  10.8567708333333 3.30803571428571  C 10.9522569444444 3.54017857142857  11 3.75297619047619  11 3.94642857142857  L 11 12.3035714285714  C 11 12.4970238095238  10.9331597222222 12.6614583333333  10.7994791666667 12.796875  C 10.6657986111111 12.9322916666667  10.5034722222222 13  10.3125 13  L 0.6875 13  C 0.496527777777778 13  0.334201388888889 12.9322916666667  0.200520833333333 12.796875  C 0.0668402777777778 12.6614583333333  0 12.4970238095238  0 12.3035714285714  L 0 0.696428571428572  C 0 0.50297619047619  0.0668402777777778 0.338541666666666  0.200520833333333 0.203125  C 0.334201388888889 0.0677083333333338  0.496527777777778 0  0.6875 0  L 7.10416666666667 0  C 7.29513888888889 0  7.50520833333333 0.0483630952380958  7.734375 0.145089285714286  C 7.96354166666667 0.241815476190476  8.14496527777778 0.357886904761904  8.27864583333333 0.493303571428572  Z M 7.626953125 1.14620535714286  C 7.56966145833333 1.08816964285714  7.47178819444445 1.03497023809524  7.33333333333333 0.986607142857142  L 7.33333333333333 3.71428571428571  L 10.0260416666667 3.71428571428571  C 9.97829861111111 3.57403273809524  9.92578125 3.47488839285714  9.86848958333333 3.41685267857143  L 7.626953125 1.14620535714286  Z M 1 12.0714285714286  L 10.0833333333333 12.0714285714286  L 10.0833333333333 4.64285714285714  L 7.10416666666667 4.64285714285714  C 6.91319444444444 4.64285714285714  6.75086805555556 4.57514880952381  6.6171875 4.43973214285714  C 6.48350694444444 4.30431547619048  6.41666666666667 4.13988095238095  6.41666666666667 3.94642857142857  L 6.41666666666667 0.928571428571428  L 1 0.928571428571428  L 1 12.0714285714286  Z M 2.75 6.26785714285714  L 2.75 5.80357142857143  C 2.75 5.73586309523809  2.771484375 5.68024553571429  2.814453125 5.63671875  C 2.857421875 5.59319196428571  2.91232638888889 5.57142857142857  2.97916666666667 5.57142857142857  L 8.02083333333333 5.57142857142857  C 8.08767361111111 5.57142857142857  8.142578125 5.59319196428571  8.185546875 5.63671875  C 8.228515625 5.68024553571429  8.25 5.73586309523809  8.25 5.80357142857143  L 8.25 6.26785714285714  C 8.25 6.33556547619048  8.228515625 6.39118303571429  8.185546875 6.43470982142857  C 8.142578125 6.47823660714286  8.08767361111111 6.5  8.02083333333333 6.5  L 2.97916666666667 6.5  C 2.91232638888889 6.5  2.857421875 6.47823660714286  2.814453125 6.43470982142857  C 2.771484375 6.39118303571429  2.75 6.33556547619048  2.75 6.26785714285714  Z M 2.97916666666667 7.42857142857143  L 8.02083333333333 7.42857142857143  C 8.08767361111111 7.42857142857143  8.142578125 7.45033482142857  8.185546875 7.49386160714286  C 8.228515625 7.53738839285714  8.25 7.59300595238095  8.25 7.66071428571429  L 8.25 8.125  C 8.25 8.19270833333333  8.228515625 8.24832589285714  8.185546875 8.29185267857143  C 8.142578125 8.33537946428571  8.08767361111111 8.35714285714286  8.02083333333333 8.35714285714286  L 2.97916666666667 8.35714285714286  C 2.91232638888889 8.35714285714286  2.857421875 8.33537946428571  2.814453125 8.29185267857143  C 2.771484375 8.24832589285714  2.75 8.19270833333333  2.75 8.125  L 2.75 7.66071428571429  C 2.75 7.59300595238095  2.771484375 7.53738839285714  2.814453125 7.49386160714286  C 2.857421875 7.45033482142857  2.91232638888889 7.42857142857143  2.97916666666667 7.42857142857143  Z M 2.97916666666667 9.28571428571429  L 8.02083333333333 9.28571428571429  C 8.08767361111111 9.28571428571429  8.142578125 9.30747767857143  8.185546875 9.35100446428571  C 8.228515625 9.39453125  8.25 9.45014880952381  8.25 9.51785714285714  L 8.25 9.98214285714286  C 8.25 10.0498511904762  8.228515625 10.10546875  8.185546875 10.1489955357143  C 8.142578125 10.1925223214286  8.08767361111111 10.2142857142857  8.02083333333333 10.2142857142857  L 2.97916666666667 10.2142857142857  C 2.91232638888889 10.2142857142857  2.857421875 10.1925223214286  2.814453125 10.1489955357143  C 2.771484375 10.10546875  2.75 10.0498511904762  2.75 9.98214285714286  L 2.75 9.51785714285714  C 2.75 9.45014880952381  2.771484375 9.39453125  2.814453125 9.35100446428571  C 2.857421875 9.30747767857143  2.91232638888889 9.28571428571429  2.97916666666667 9.28571428571429  Z " fill-rule="nonzero" fill="#000000" stroke="none" transform="matrix(1 0 0 1 881 377 )" />
  </g>
</svg>