<?xml version="1.0" encoding="utf-8"?>
<svg version="1.1" xmlns:xlink="http://www.w3.org/1999/xlink" width="28px" height="29px" xmlns="http://www.w3.org/2000/svg">
  <g transform="matrix(1 0 0 1 -817 -287 )">
    <path d="M 16.5797101449275 13.8316633266533  C 16.7729468599034 14.0253841015364  16.8695652173913 14.248162992652  16.8695652173913 14.5  C 16.8695652173913 14.751837007348  16.7729468599034 14.9746158984636  16.5797101449275 15.1683366733467  L 3.07246376811594 28.7094188376754  C 2.8792270531401 28.9031396125585  2.65700483091787 29  2.40579710144928 29  C 2.15458937198068 29  1.93236714975845 28.9031396125585  1.73913043478261 28.7094188376754  L 0.289855072463768 27.2565130260521  C 0.0966183574879228 27.062792251169  0 26.8400133600534  0 26.5881763527054  C 0 26.3363393453574  0.0966183574879228 26.1135604542418  0.289855072463768 25.9198396793587  L 11.6811594202899 14.5  L 0.289855072463768 3.08016032064128  C 0.0966183574879228 2.88643954575818  0 2.66366065464262  0 2.41182364729459  C 0 2.15998663994656  0.0966183574879228 1.93720774883099  0.289855072463768 1.74348697394789  L 1.73913043478261 0.29058116232465  C 1.93236714975845 0.0968603874415488  2.15458937198068 0  2.40579710144928 0  C 2.65700483091787 0  2.8792270531401 0.0968603874415488  3.07246376811594 0.29058116232465  L 16.5797101449275 13.8316633266533  Z M 27.7101449275362 13.8316633266533  C 27.9033816425121 14.0253841015364  28 14.248162992652  28 14.5  C 28 14.751837007348  27.9033816425121 14.9746158984636  27.7101449275362 15.1683366733467  L 14.2028985507246 28.7094188376754  C 14.0096618357488 28.9031396125585  13.7874396135266 29  13.536231884058 29  C 13.2850241545894 29  13.0628019323672 28.9031396125585  12.8695652173913 28.7094188376754  L 11.4202898550725 27.2565130260521  C 11.2270531400966 27.062792251169  11.1304347826087 26.8400133600534  11.1304347826087 26.5881763527054  C 11.1304347826087 26.3363393453574  11.2270531400966 26.1135604542418  11.4202898550725 25.9198396793587  L 22.8115942028986 14.5  L 11.4202898550725 3.08016032064128  C 11.2270531400966 2.88643954575818  11.1304347826087 2.66366065464262  11.1304347826087 2.41182364729459  C 11.1304347826087 2.15998663994656  11.2270531400966 1.93720774883099  11.4202898550725 1.74348697394789  L 12.8695652173913 0.29058116232465  C 13.0628019323672 0.0968603874415488  13.2850241545894 0  13.536231884058 0  C 13.7874396135266 0  14.0096618357488 0.0968603874415488  14.2028985507246 0.29058116232465  L 27.7101449275362 13.8316633266533  Z " fill-rule="nonzero" fill="#aaaaaa" stroke="none" transform="matrix(1 0 0 1 817 287 )" />
  </g>
</svg>