<?xml version="1.0" encoding="utf-8"?>
<svg version="1.1" xmlns:xlink="http://www.w3.org/1999/xlink" width="6px" height="5px" xmlns="http://www.w3.org/2000/svg">
  <defs>
    <mask fill="white" id="clip25">
      <path d="M 5.79807692307692 1.79269061121613  C 5.93269230769231 1.81159420289855  6 1.85990338164251  6 1.93761814744802  C 6 1.98382692711615  5.96875 2.03423650493594  5.90625 2.08884688090737  L 4.59735576923077 3.20415879017013  L 4.90745192307692 4.77945809703844  C 4.90985576923077 4.79416089056921  4.91105769230769 4.81516488132745  4.91105769230769 4.84247006931317  C 4.91105769230769 4.88657844990548  4.8984375 4.92386053350137  4.87319711538462 4.95431632010082  C 4.84795673076923 4.98477210670027  4.81129807692308 5  4.76322115384615 5  C 4.71754807692308 5  4.66947115384615 4.98739760554505  4.61899038461538 4.96219281663516  L 3 4.21865154379332  L 1.38100961538462 4.96219281663516  C 1.328125 4.98739760554505  1.28004807692308 5  1.23677884615385 5  C 1.18629807692308 5  1.1484375 4.98477210670027  1.12319711538462 4.95431632010082  C 1.09795673076923 4.92386053350137  1.08533653846154 4.88657844990548  1.08533653846154 4.84247006931317  C 1.08533653846154 4.82986767485822  1.08774038461538 4.80886368409998  1.09254807692308 4.77945809703844  L 1.40264423076923 3.20415879017013  L 0.0901442307692308 2.08884688090737  C 0.0300480769230769 2.03213610586011  0 1.98172652804033  0 1.93761814744802  C 0 1.85990338164251  0.0673076923076923 1.81159420289855  0.201923076923077 1.79269061121613  L 2.01201923076923 1.56269691241336  L 2.82331730769231 0.129174543163201  C 2.86899038461539 0.0430581810544001  2.92788461538462 0  3 0  C 3.07211538461538 0  3.13100961538462 0.0430581810544001  3.17668269230769 0.129174543163201  L 3.98798076923077 1.56269691241336  L 5.79807692307692 1.79269061121613  Z " fill-rule="evenodd" />
    </mask>
  </defs>
  <g transform="matrix(1 0 0 1 -611 -881 )">
    <path d="M 5.79807692307692 1.79269061121613  C 5.93269230769231 1.81159420289855  6 1.85990338164251  6 1.93761814744802  C 6 1.98382692711615  5.96875 2.03423650493594  5.90625 2.08884688090737  L 4.59735576923077 3.20415879017013  L 4.90745192307692 4.77945809703844  C 4.90985576923077 4.79416089056921  4.91105769230769 4.81516488132745  4.91105769230769 4.84247006931317  C 4.91105769230769 4.88657844990548  4.8984375 4.92386053350137  4.87319711538462 4.95431632010082  C 4.84795673076923 4.98477210670027  4.81129807692308 5  4.76322115384615 5  C 4.71754807692308 5  4.66947115384615 4.98739760554505  4.61899038461538 4.96219281663516  L 3 4.21865154379332  L 1.38100961538462 4.96219281663516  C 1.328125 4.98739760554505  1.28004807692308 5  1.23677884615385 5  C 1.18629807692308 5  1.1484375 4.98477210670027  1.12319711538462 4.95431632010082  C 1.09795673076923 4.92386053350137  1.08533653846154 4.88657844990548  1.08533653846154 4.84247006931317  C 1.08533653846154 4.82986767485822  1.08774038461538 4.80886368409998  1.09254807692308 4.77945809703844  L 1.40264423076923 3.20415879017013  L 0.0901442307692308 2.08884688090737  C 0.0300480769230769 2.03213610586011  0 1.98172652804033  0 1.93761814744802  C 0 1.85990338164251  0.0673076923076923 1.81159420289855  0.201923076923077 1.79269061121613  L 2.01201923076923 1.56269691241336  L 2.82331730769231 0.129174543163201  C 2.86899038461539 0.0430581810544001  2.92788461538462 0  3 0  C 3.07211538461538 0  3.13100961538462 0.0430581810544001  3.17668269230769 0.129174543163201  L 3.98798076923077 1.56269691241336  L 5.79807692307692 1.79269061121613  Z " fill-rule="nonzero" fill="#fedd02" stroke="none" fill-opacity="0" transform="matrix(1 0 0 1 611 881 )" />
    <path d="M 5.79807692307692 1.79269061121613  C 5.93269230769231 1.81159420289855  6 1.85990338164251  6 1.93761814744802  C 6 1.98382692711615  5.96875 2.03423650493594  5.90625 2.08884688090737  L 4.59735576923077 3.20415879017013  L 4.90745192307692 4.77945809703844  C 4.90985576923077 4.79416089056921  4.91105769230769 4.81516488132745  4.91105769230769 4.84247006931317  C 4.91105769230769 4.88657844990548  4.8984375 4.92386053350137  4.87319711538462 4.95431632010082  C 4.84795673076923 4.98477210670027  4.81129807692308 5  4.76322115384615 5  C 4.71754807692308 5  4.66947115384615 4.98739760554505  4.61899038461538 4.96219281663516  L 3 4.21865154379332  L 1.38100961538462 4.96219281663516  C 1.328125 4.98739760554505  1.28004807692308 5  1.23677884615385 5  C 1.18629807692308 5  1.1484375 4.98477210670027  1.12319711538462 4.95431632010082  C 1.09795673076923 4.92386053350137  1.08533653846154 4.88657844990548  1.08533653846154 4.84247006931317  C 1.08533653846154 4.82986767485822  1.08774038461538 4.80886368409998  1.09254807692308 4.77945809703844  L 1.40264423076923 3.20415879017013  L 0.0901442307692308 2.08884688090737  C 0.0300480769230769 2.03213610586011  0 1.98172652804033  0 1.93761814744802  C 0 1.85990338164251  0.0673076923076923 1.81159420289855  0.201923076923077 1.79269061121613  L 2.01201923076923 1.56269691241336  L 2.82331730769231 0.129174543163201  C 2.86899038461539 0.0430581810544001  2.92788461538462 0  3 0  C 3.07211538461538 0  3.13100961538462 0.0430581810544001  3.17668269230769 0.129174543163201  L 3.98798076923077 1.56269691241336  L 5.79807692307692 1.79269061121613  Z " stroke-width="2" stroke="#797979" fill="none" transform="matrix(1 0 0 1 611 881 )" mask="url(#clip25)" />
  </g>
</svg>