<?xml version="1.0" encoding="utf-8"?>
<svg version="1.1" xmlns:xlink="http://www.w3.org/1999/xlink" width="31px" height="31px" xmlns="http://www.w3.org/2000/svg">
  <g transform="matrix(1 0 0 1 -594 -981 )">
    <path d="M 609.5 981  C 618.18 981  625 987.82  625 996.5  C 625 1005.18  618.18 1012  609.5 1012  C 600.82 1012  594 1005.18  594 996.5  C 594 987.82  600.82 981  609.5 981  Z " fill-rule="nonzero" fill="#ffffff" stroke="none" />
    <path d="M 609.5 981.5  C 617.9 981.5  624.5 988.1  624.5 996.5  C 624.5 1004.9  617.9 1011.5  609.5 1011.5  C 601.1 1011.5  594.5 1004.9  594.5 996.5  C 594.5 988.1  601.1 981.5  609.5 981.5  Z " stroke-width="1" stroke="#797979" fill="none" />
  </g>
</svg>