<?xml version="1.0" encoding="utf-8"?>
<svg version="1.1" xmlns:xlink="http://www.w3.org/1999/xlink" width="132px" height="22px" xmlns="http://www.w3.org/2000/svg">
  <g transform="matrix(1 0 0 1 -332 -884 )">
    <path d="M 131.236111111111 10.2704811443433  C 131.74537037037 10.4612050281751  132 10.6805374945817  132 10.9284785435631  C 132 11.1954919809276  131.74537037037 11.4243606415258  131.236111111111 11.6150845253576  L 101.902777777778 21.742522756827  C 101.087962962963 22.0095361941916  100.196759259259 22.0667533593411  99.2291666666667 21.9141742522757  C 98.2615740740741 21.742522756827  97.7777777777778 21.4659731252709  97.7777777777778 21.0845253576073  L 97.7777777777778 14.6762028608583  L 2.44444444444444 14.6762028608583  C 1.73148148148148 14.6762028608583  1.14583333333333 14.5903771131339  0.6875 14.4187256176853  C 0.229166666666667 14.2470741222367  0 14.0277416558301  0 13.7607282184655  L 0 8.26788036410923  C 0 8.00086692674469  0.229166666666667 7.7815344603381  0.6875 7.60988296488947  C 1.14583333333333 7.43823146944083  1.73148148148148 7.35240572171652  2.44444444444444 7.35240572171652  L 97.7777777777778 7.35240572171652  L 97.7777777777778 0.944083224967491  C 97.7777777777778 0.543563068920677  98.2615740740741 0.267013437364541  99.2291666666667 0.11443433029909  C 100.196759259259 -0.0381447767663659  101.087962962963 0.00953619419158902  101.902777777778 0.257477243172952  L 131.236111111111 10.2704811443433  Z " fill-rule="nonzero" fill="#aaaaaa" stroke="none" transform="matrix(1 0 0 1 332 884 )" />
  </g>
</svg>