<?xml version="1.0" encoding="utf-8"?>
<svg version="1.1" xmlns:xlink="http://www.w3.org/1999/xlink" width="11px" height="21px" xmlns="http://www.w3.org/2000/svg">
  <g transform="matrix(1 0 0 1 -144 -297 )">
    <path d="M 10.8109965635739 1.2625250501002  C 10.9369988545246 1.40280561122244  11 1.56412825651302  11 1.74649298597194  C 11 1.92885771543086  10.9369988545246 2.09018036072144  10.8109965635739 2.23046092184369  L 3.38316151202749 10.5  L 10.8109965635739 18.7695390781563  C 10.9369988545246 18.9098196392786  11 19.0711422845691  11 19.2535070140281  C 11 19.435871743487  10.9369988545246 19.5971943887776  10.8109965635739 19.7374749498998  L 9.8659793814433 20.7895791583166  C 9.73997709049256 20.9298597194389  9.5950744558992 21  9.43127147766323 21  C 9.26746849942726 21  9.12256586483391 20.9298597194389  8.99656357388316 20.7895791583166  L 0.189003436426117 10.9839679358717  C 0.0630011454753723 10.8436873747495  0 10.6823647294589  0 10.5  C 0 10.3176352705411  0.0630011454753723 10.1563126252505  0.189003436426117 10.0160320641283  L 8.99656357388316 0.210420841683367  C 9.12256586483391 0.0701402805611215  9.26746849942726 0  9.43127147766323 0  C 9.5950744558992 0  9.73997709049256 0.0701402805611215  9.8659793814433 0.210420841683367  L 10.8109965635739 1.2625250501002  Z " fill-rule="nonzero" fill="#ffffff" stroke="none" transform="matrix(1 0 0 1 144 297 )" />
  </g>
</svg>