<?xml version="1.0" encoding="utf-8"?>
<svg version="1.1" xmlns:xlink="http://www.w3.org/1999/xlink" width="13px" height="6px" xmlns="http://www.w3.org/2000/svg">
  <g transform="matrix(1 0 0 1 -778 -307 )">
    <path d="M 12.8697394789579 0.618556701030928  C 12.9565798263193 0.687285223367696  13 0.766323024054982  13 0.855670103092784  C 13 0.945017182130584  12.9565798263193 1.02405498281787  12.8697394789579 1.09278350515464  L 6.79959919839679 5.89690721649484  C 6.7127588510354 5.96563573883161  6.61289245156981 6  6.5 6  C 6.38710754843019 6  6.2872411489646 5.96563573883161  6.20040080160321 5.89690721649484  L 0.130260521042084 1.09278350515464  C 0.0434201736806948 1.02405498281787  0 0.945017182130584  0 0.855670103092784  C 0 0.766323024054982  0.0434201736806948 0.687285223367696  0.130260521042084 0.618556701030928  L 0.781563126252505 0.103092783505155  C 0.868403473613895 0.0343642611683841  0.968269873079492 0  1.0811623246493 0  C 1.19405477621911 0  1.2939211756847 0.0343642611683841  1.38076152304609 0.103092783505155  L 6.5 4.15463917525773  L 11.6192384769539 0.103092783505155  C 11.7060788243153 0.0343642611683841  11.8059452237809 0  11.9188376753507 0  C 12.0317301269205 0  12.1315965263861 0.0343642611683841  12.2184368737475 0.103092783505155  L 12.8697394789579 0.618556701030928  Z " fill-rule="nonzero" fill="#ffffff" stroke="none" transform="matrix(1 0 0 1 778 307 )" />
  </g>
</svg>